<svg width="179" height="60" viewBox="0 0 179 60" fill="none" xmlns="http://www.w3.org/2000/svg">
<path d="M16.4682 44.1756L16.7215 43.5H16H15.9999H15.9998H15.9997H15.9995H15.9993H15.9991H15.9988H15.9985H15.9981H15.9977H15.9972H15.9968H15.9962H15.9957H15.9951H15.9945H15.9938H15.9931H15.9923H15.9915H15.9907H15.9898H15.9889H15.988H15.987H15.9859H15.9849H15.9838H15.9826H15.9814H15.9802H15.9789H15.9776H15.9763H15.9749H15.9734H15.972H15.9705H15.9689H15.9673H15.9657H15.964H15.9623H15.9605H15.9587H15.9569H15.955H15.9531H15.9511H15.9491H15.9471H15.945H15.9429H15.9407H15.9385H15.9362H15.9339H15.9316H15.9292H15.9268H15.9243H15.9218H15.9193H15.9167H15.9141H15.9114H15.9087H15.9059H15.9031H15.9003H15.8974H15.8944H15.8915H15.8885H15.8854H15.8823H15.8791H15.876H15.8727H15.8694H15.8661H15.8628H15.8594H15.8559H15.8524H15.8489H15.8453H15.8417H15.838H15.8343H15.8305H15.8267H15.8229H15.819H15.8151H15.8111H15.807H15.803H15.7989H15.7947H15.7905H15.7863H15.782H15.7776H15.7732H15.7688H15.7643H15.7598H15.7552H15.7506H15.746H15.7413H15.7365H15.7317H15.7269H15.722H15.7171H15.7121H15.7071H15.702H15.6969H15.6917H15.6865H15.6813H15.676H15.6706H15.6652H15.6598H15.6543H15.6488H15.6432H15.6376H15.6319H15.6262H15.6204H15.6146H15.6087H15.6028H15.5969H15.5909H15.5848H15.5787H15.5726H15.5664H15.5601H15.5538H15.5475H15.5411H15.5347H15.5282H15.5216H15.5151H15.5084H15.5018H15.495H15.4882H15.4814H15.4746H15.4676H15.4607H15.4536H15.4466H15.4395H15.4323H15.4251H15.4178H15.4105H15.4031H15.3957H15.3883H15.3807H15.3732H15.3656H15.3579H15.3502H15.3424H15.3346H15.3268H15.3189H15.3109H15.3029H15.2948H15.2867H15.2785H15.2703H15.2621H15.2538H15.2454H15.237H15.2285H15.22H15.2114H15.2028H15.1941H15.1854H15.1766H15.1678H15.1589H15.15H15.141H15.132H15.1229H15.1138H15.1046H15.0953H15.086H15.0767H15.0673H15.0579H15.0484H15.0388H15.0292H15.0195H15.0098H15.0001H14.9903H14.9804H14.9705H14.9605H14.9505H14.9404H14.9303H14.9201H14.9098H14.8995H14.8892H14.8788H14.8683H14.8578H14.8473H14.8367H14.826H14.8153H14.8045H14.7937H14.7828H14.7718H14.7609H14.7498H14.7387H14.7276H14.7163H14.7051H14.6938H14.6824H14.671H14.6595H14.6479H14.6364H14.6247H14.613H14.6012H14.5894H14.5776H14.5656H14.5537H14.5416H14.5295H14.5174H14.5052H14.4929H14.4806H14.4683H14.4558H14.4434H14.4308H14.4182H14.4056H14.3929H14.3801H14.3673H14.3544H14.3415H14.3285H14.3155H14.3024H14.2892H14.276H14.2627H14.2494H14.236H14.2226H14.2091H14.1955H14.1819H14.1682H14.1545H14.1407H14.1269H14.113H14.099H14.085H14.0709H14.0568H14.0426H14.0283H14.014H13.9996H13.9852H13.9707H13.9562H13.9416H13.9269H13.9122H13.8974H13.8826H13.8677H13.8528H13.8377H13.8227H13.8075H13.7923H13.7771H13.7618H13.7464H13.731H13.7155H13.7H13.6844H13.6687H13.653H13.6372H13.6213H13.6054H13.5895H13.5734H13.5573H13.5412H13.525H13.5087H13.4924H13.476H13.4596H13.443H13.4265H13.4098H13.3931H13.3764H13.3596H13.3427H13.3258H13.3088H13.2917H13.2746H13.2574H13.2402H13.2229H13.2055H13.1881H13.1706H13.153H13.1354H13.1177H13.1H13.0822H13.0643H13.0464H13.0284H13.0104H12.9922H12.9741H12.9558H12.9375H12.9192H12.9007H12.8822H12.8637H12.8451H12.8264H12.8077H12.7888H12.77H12.751H12.7321H12.713H12.6939H12.6747H12.6554H12.6361H12.6167H12.5973H12.5778H12.5582H12.5386H12.5189H12.4991H12.4793H12.4594H12.4395H12.4194H12.3994H12.3792H12.359H12.3387H12.3184H12.298H12.2775H12.257H12.2363H12.2157H12.1949H12.1741H12.1533H12.1323H12.1114H12.0903H12.0692H12.048H12.0267H12.0054H11.984H11.9625H11.941H11.9194H11.8978H11.876H11.8543H11.8324H11.8105H11.7885H11.7664H11.7443H11.7221H11.6999H11.6776H11.6552H11.6327H11.6102H11.5876H11.5649H11.5422H11.5194H11.4966H11.4736H11.4506H11.4276H11.4044H11.3812H11.358H11.3346H11.3112H11.2878H11.2642H11.2406H11.217H11.1932H11.1694H11.1455H11.1216H11.0976H11.0735H11.0493H11.0251H11.0008H10.9764H10.952H10.9275H10.9029H10.8783H10.8536H10.8288H10.804H10.7791H10.7541H10.729H10.7039H10.6787H10.6534H10.6281H10.6027H10.5772H10.5517H10.5261H10.5004H10.4746H10.4488H10.4229H10.3969H10.3709H10.3448H10.3186H10.2924H10.266H10.2396H10.2132H10.1866H10.16H10.1334H10.1066H10.0798H10.0529H10.0259H9.99891H9.97181H9.94463H9.91738H9.89006H9.86267H9.83521H9.80767H9.78006H9.75238H9.72463H9.69681H9.66891H9.64094H9.6129H9.58478H9.55659H9.52833H9.5C7.23453 43.5 4.98029 42.4251 3.28551 40.753C1.59058 39.0808 0.5 36.8559 0.5 34.6116V8.87841C0.5 4.37634 4.81113 0.500017 9.41392 0.500017L170.086 0.5C174.66 0.5 178.5 4.34187 178.5 8.8784L178.5 34.248C178.5 36.5151 177.528 38.838 175.966 40.5949C174.404 42.3512 172.293 43.5 170.043 43.5H34H33.8486L33.7226 43.584L11.0125 58.7241L16.4682 44.1756Z" stroke="#E84D21"/>
</svg>
