<svg width="400" height="99" viewBox="0 0 400 99" fill="none" xmlns="http://www.w3.org/2000/svg">
<path d="M372.539 72.1888L372.258 71.5001H373.002H373.002H373.002H373.002H373.003H373.003H373.003H373.004H373.005H373.005H373.006H373.007H373.008H373.009H373.01H373.011H373.012H373.013H373.014H373.016H373.017H373.018H373.02H373.022H373.023H373.025H373.027H373.029H373.031H373.033H373.035H373.037H373.039H373.042H373.044H373.047H373.049H373.052H373.054H373.057H373.06H373.063H373.066H373.069H373.072H373.075H373.078H373.082H373.085H373.089H373.092H373.096H373.099H373.103H373.107H373.111H373.115H373.119H373.123H373.127H373.131H373.136H373.14H373.145H373.149H373.154H373.159H373.163H373.168H373.173H373.178H373.183H373.188H373.194H373.199H373.204H373.21H373.215H373.221H373.227H373.232H373.238H373.244H373.25H373.256H373.262H373.268H373.275H373.281H373.287H373.294H373.3H373.307H373.314H373.321H373.328H373.334H373.342H373.349H373.356H373.363H373.37H373.378H373.385H373.393H373.401H373.408H373.416H373.424H373.432H373.44H373.448H373.456H373.464H373.473H373.481H373.49H373.498H373.507H373.516H373.524H373.533H373.542H373.551H373.561H373.57H373.579H373.588H373.598H373.607H373.617H373.627H373.636H373.646H373.656H373.666H373.676H373.686H373.697H373.707H373.717H373.728H373.738H373.749H373.76H373.77H373.781H373.792H373.803H373.814H373.826H373.837H373.848H373.86H373.871H373.883H373.894H373.906H373.918H373.93H373.942H373.954H373.966H373.978H373.991H374.003H374.016H374.028H374.041H374.054H374.067H374.079H374.092H374.106H374.119H374.132H374.145H374.159H374.172H374.186H374.199H374.213H374.227H374.241H374.255H374.269H374.283H374.297H374.312H374.326H374.341H374.355H374.37H374.385H374.399H374.414H374.429H374.444H374.46H374.475H374.49H374.506H374.521H374.537H374.552H374.568H374.584H374.6H374.616H374.632H374.648H374.665H374.681H374.697H374.714H374.731H374.747H374.764H374.781H374.798H374.815H374.832H374.849H374.867H374.884H374.902H374.919H374.937H374.955H374.973H374.991H375.009H375.027H375.045H375.063H375.082H375.1H375.119H375.137H375.156H375.175H375.194H375.213H375.232H375.251H375.27H375.289H375.309H375.328H375.348H375.368H375.388H375.407H375.427H375.448H375.468H375.488H375.508H375.529H375.549H375.57H375.59H375.611H375.632H375.653H375.674H375.695H375.717H375.738H375.759H375.781H375.802H375.824H375.846H375.868H375.89H375.912H375.934H375.956H375.979H376.001H376.023H376.046H376.069H376.092H376.114H376.137H376.161H376.184H376.207H376.23H376.254H376.277H376.301H376.325H376.348H376.372H376.396H376.42H376.445H376.469H376.493H376.518H376.542H376.567H376.592H376.617H376.642H376.667H376.692H376.717H376.742H376.768H376.793H376.819H376.845H376.87H376.896H376.922H376.948H376.974H377.001H377.027H377.054H377.08H377.107H377.133H377.16H377.187H377.214H377.241H377.269H377.296H377.323H377.351H377.379H377.406H377.434H377.462H377.49H377.518H377.546H377.575H377.603H377.631H377.66H377.689H377.718H377.746H377.775H377.804H377.834H377.863H377.892H377.922H377.951H377.981H378.011H378.041H378.071H378.101H378.131H378.161H378.191H378.222H378.252H378.283H378.314H378.345H378.376H378.407H378.438H378.469H378.5H378.532H378.563H378.595H378.627H378.659H378.691H378.723H378.755H378.787H378.819H378.852H378.884H378.917H378.95H378.983H379.016H379.049H379.082H379.115H379.149H379.182H379.216H379.249H379.283H379.317H379.351H379.385H379.419H379.453H379.488H379.522H379.557H379.592H379.626H379.661H379.696H379.731H379.767H379.802H379.837H379.873H379.908H379.944H379.98H380.016H380.052H380.088H380.124H380.161H380.197H380.234H380.27H380.307H380.344H380.381H380.418H380.455H380.493H380.53H380.568H380.605H380.643H380.681H380.719H380.757H380.795H380.833H380.871H380.91H380.948H380.987H381.026H381.065H381.104H381.143H381.182H381.221H381.261H381.3H381.34H381.379H381.419H381.459H381.499H381.539H381.58H381.62H381.661H381.701H381.742H381.783H381.824H381.865H381.906H381.947H381.988H382.03H382.071H382.113H382.155H382.197H382.239H382.281H382.323H382.365H382.408H382.45H382.493H382.536H382.578H382.621H382.664H382.708H382.751H382.794H382.838H382.882H382.925H382.969H383.013H383.057H383.101H383.146H383.19H383.235H383.279H383.324H383.369H383.414H383.459H383.504H383.549H383.595H383.64H383.686H383.732H383.777H383.823C387.58 71.5001 391.251 69.5771 393.994 66.6699C396.737 63.7627 398.502 59.9238 398.502 56.173V14.4093C398.502 6.90803 391.347 0.500058 383.733 0.500058L14.4584 0.500031C6.86902 0.500031 0.500031 6.87353 0.500031 14.4092L0.5 56.173C0.5 59.938 2.11121 63.7796 4.68918 66.6809C7.26663 69.5816 10.7708 71.5001 14.5275 71.5001H343.002H343.152L343.277 71.5825L382.931 97.696L372.539 72.1888Z" stroke="#E84D21"/>
</svg>
