<svg width="200" height="60" viewBox="0 0 200 60" fill="none" xmlns="http://www.w3.org/2000/svg">
<path d="M16.4681 44.1756L16.7215 43.5H16H15.9999H15.9998H15.9997H15.9995H15.9993H15.999H15.9987H15.9984H15.9981H15.9977H15.9972H15.9967H15.9962H15.9957H15.9951H15.9944H15.9938H15.993H15.9923H15.9915H15.9907H15.9898H15.9889H15.9879H15.9869H15.9859H15.9848H15.9837H15.9826H15.9814H15.9802H15.9789H15.9776H15.9762H15.9748H15.9734H15.9719H15.9704H15.9689H15.9673H15.9657H15.964H15.9623H15.9605H15.9587H15.9569H15.955H15.9531H15.9511H15.9491H15.9471H15.945H15.9428H15.9407H15.9385H15.9362H15.9339H15.9316H15.9292H15.9268H15.9243H15.9218H15.9193H15.9167H15.914H15.9114H15.9086H15.9059H15.9031H15.9002H15.8973H15.8944H15.8914H15.8884H15.8854H15.8823H15.8791H15.8759H15.8727H15.8694H15.8661H15.8627H15.8593H15.8559H15.8524H15.8488H15.8453H15.8416H15.838H15.8343H15.8305H15.8267H15.8228H15.819H15.815H15.811H15.807H15.8029H15.7988H15.7947H15.7905H15.7862H15.7819H15.7776H15.7732H15.7688H15.7643H15.7598H15.7552H15.7506H15.746H15.7413H15.7365H15.7317H15.7269H15.722H15.7171H15.7121H15.7071H15.702H15.6969H15.6917H15.6865H15.6813H15.676H15.6706H15.6652H15.6598H15.6543H15.6488H15.6432H15.6375H15.6319H15.6261H15.6204H15.6146H15.6087H15.6028H15.5968H15.5908H15.5848H15.5787H15.5725H15.5663H15.5601H15.5538H15.5475H15.5411H15.5346H15.5281H15.5216H15.515H15.5084H15.5017H15.495H15.4882H15.4814H15.4745H15.4676H15.4606H15.4536H15.4465H15.4394H15.4323H15.425H15.4178H15.4105H15.4031H15.3957H15.3882H15.3807H15.3732H15.3655H15.3579H15.3502H15.3424H15.3346H15.3267H15.3188H15.3109H15.3029H15.2948H15.2867H15.2785H15.2703H15.262H15.2537H15.2454H15.2369H15.2285H15.22H15.2114H15.2028H15.1941H15.1854H15.1766H15.1678H15.1589H15.15H15.141H15.132H15.1229H15.1137H15.1045H15.0953H15.086H15.0767H15.0673H15.0578H15.0483H15.0388H15.0292H15.0195H15.0098H15H14.9902H14.9804H14.9704H14.9605H14.9504H14.9404H14.9302H14.92H14.9098H14.8995H14.8892H14.8788H14.8683H14.8578H14.8472H14.8366H14.826H14.8152H14.8045H14.7936H14.7828H14.7718H14.7608H14.7498H14.7387H14.7275H14.7163H14.7051H14.6937H14.6824H14.6709H14.6595H14.6479H14.6363H14.6247H14.613H14.6012H14.5894H14.5775H14.5656H14.5536H14.5416H14.5295H14.5174H14.5052H14.4929H14.4806H14.4682H14.4558H14.4433H14.4308H14.4182H14.4056H14.3928H14.3801H14.3673H14.3544H14.3415H14.3285H14.3154H14.3023H14.2892H14.276H14.2627H14.2494H14.236H14.2225H14.209H14.1955H14.1819H14.1682H14.1545H14.1407H14.1268H14.1129H14.099H14.0849H14.0709H14.0567H14.0425H14.0283H14.014H13.9996H13.9852H13.9707H13.9562H13.9416H13.9269H13.9122H13.8974H13.8826H13.8677H13.8527H13.8377H13.8226H13.8075H13.7923H13.7771H13.7618H13.7464H13.731H13.7155H13.6999H13.6843H13.6687H13.6529H13.6371H13.6213H13.6054H13.5894H13.5734H13.5573H13.5412H13.525H13.5087H13.4924H13.476H13.4595H13.443H13.4264H13.4098H13.3931H13.3764H13.3595H13.3427H13.3257H13.3087H13.2917H13.2746H13.2574H13.2401H13.2228H13.2055H13.188H13.1705H13.153H13.1354H13.1177H13.0999H13.0821H13.0643H13.0464H13.0284H13.0103H12.9922H12.974H12.9558H12.9375H12.9191H12.9007H12.8822H12.8637H12.845H12.8264H12.8076H12.7888H12.7699H12.751H12.732H12.713H12.6938H12.6747H12.6554H12.6361H12.6167H12.5973H12.5778H12.5582H12.5386H12.5189H12.4991H12.4793H12.4594H12.4394H12.4194H12.3993H12.3792H12.359H12.3387H12.3183H12.2979H12.2775H12.2569H12.2363H12.2156H12.1949H12.1741H12.1532H12.1323H12.1113H12.0903H12.0691H12.0479H12.0267H12.0054H11.984H11.9625H11.941H11.9194H11.8977H11.876H11.8542H11.8324H11.8105H11.7885H11.7664H11.7443H11.7221H11.6998H11.6775H11.6551H11.6327H11.6102H11.5876H11.5649H11.5422H11.5194H11.4965H11.4736H11.4506H11.4275H11.4044H11.3812H11.358H11.3346H11.3112H11.2877H11.2642H11.2406H11.2169H11.1932H11.1694H11.1455H11.1215H11.0975H11.0734H11.0493H11.0251H11.0008H10.9764H10.952H10.9275H10.9029H10.8783H10.8536H10.8288H10.8039H10.779H10.754H10.729H10.7039H10.6787H10.6534H10.6281H10.6027H10.5772H10.5516H10.526H10.5003H10.4746H10.4488H10.4229H10.3969H10.3709H10.3448H10.3186H10.2923H10.266H10.2396H10.2131H10.1866H10.16H10.1333H10.1066H10.0798H10.0529H10.0259H9.99888H9.97178H9.9446H9.91735H9.89003H9.86264H9.83518H9.80764H9.78003H9.75235H9.7246H9.69677H9.66888H9.64091H9.61287H9.58475H9.55656H9.5283H9.49997C7.2345 43.5 4.98026 42.4251 3.28548 40.753C1.59055 39.0808 0.499969 36.8559 0.499969 34.6116V8.87841C0.499969 4.37634 4.8111 0.500017 9.41389 0.500017L191.086 0.5C195.66 0.5 199.5 4.34187 199.5 8.8784L199.5 34.248C199.5 36.5151 198.528 38.838 196.966 40.5949C195.404 42.3512 193.293 43.5 191.043 43.5H34H33.8486L33.7226 43.584L11.0124 58.7241L16.4681 44.1756Z" stroke="#E84D21"/>
</svg>
