<svg width="15" height="10" viewBox="0 0 15 10" fill="none" xmlns="http://www.w3.org/2000/svg">
<path d="M2.83575 6.53211C2.50154 7.31639 1.97491 8.09125 1.27103 8.83775C1.04822 9.07399 1.01784 9.41415 1.20013 9.67873C1.34194 9.88661 1.57485 10 1.82805 10C1.89895 10 1.96985 9.9953 2.04075 9.97165C3.52949 9.56534 7.00839 8.12432 7.1046 3.50359C7.14003 1.72242 5.74243 0.191631 3.92449 0.0168186C2.91679 -0.0776793 1.91415 0.229405 1.16975 0.853065C0.425379 1.48145 0 2.37915 0 3.31462C0 4.87375 1.18496 6.23919 2.83575 6.53211Z" fill="#E84D21"/>
<path d="M11.8146 0.0168186C10.8118 -0.0776793 9.80907 0.229405 9.06463 0.853065C8.32016 1.48145 7.89474 2.37915 7.89474 3.31462C7.89474 4.87376 9.07981 6.23919 10.7308 6.53212C10.3965 7.3164 9.86985 8.09125 9.1659 8.83775C8.94307 9.07399 8.91268 9.41415 9.09502 9.67873C9.23681 9.88661 9.46978 10 9.72299 10C9.79387 10 9.86478 9.9953 9.93568 9.97165C11.4246 9.56534 14.9038 8.12432 15 3.50359V3.43747C15 1.68461 13.6175 0.191631 11.8146 0.0168186Z" fill="#E84D21"/>
</svg>
