<svg width="25" height="27" viewBox="0 0 25 27" fill="none" xmlns="http://www.w3.org/2000/svg">
<path d="M4.34779 17.304H2.67391C1.47826 17.304 0.5 16.3257 0.5 15.1301V11.8692C0.5 10.6736 1.47826 9.69531 2.67391 9.69531H4.34779V17.304Z" stroke="#151517" stroke-miterlimit="10" stroke-linecap="round" stroke-linejoin="round"/>
<path d="M20.6521 17.304H22.3261C23.5217 17.304 24.5 16.3257 24.5 15.1301V11.8692C24.5 10.6736 23.5217 9.69531 22.3261 9.69531H20.6521V17.304Z" stroke="#151517" stroke-miterlimit="10" stroke-linecap="round" stroke-linejoin="round"/>
<path d="M21.7391 17.3047V19.4786C21.7391 21.8699 19.5652 24.9134 16.3043 24.9134H14.1304" stroke="#151517" stroke-miterlimit="10" stroke-linecap="round" stroke-linejoin="round"/>
<path d="M13.0435 26.4132H11.587C10.9348 26.4132 10.5 25.6522 10.5 25C10.5 24.3478 10.9348 23.5 11.587 23.5H13.0435C13.6956 23.5 14.1304 24.3478 14.1304 25C14.1304 25.6522 13.6957 26.4132 13.0435 26.4132Z" stroke="#151517" stroke-miterlimit="10" stroke-linecap="round" stroke-linejoin="round"/>
<path d="M4.34778 9.69565V8.6087C4.34778 4.36957 7.71734 1 11.9565 1H13.0434C17.2826 1 20.6521 4.36957 20.6521 8.6087V9.69565" stroke="#151517" stroke-miterlimit="10" stroke-linecap="round" stroke-linejoin="round"/>
</svg>
